<?xml version="1.0" encoding="UTF-8" standalone="no"?>
<svg
   xmlns:dc="http://purl.org/dc/elements/1.1/"
   xmlns:cc="http://creativecommons.org/ns#"
   xmlns:rdf="http://www.w3.org/1999/02/22-rdf-syntax-ns#"
   xmlns:svg="http://www.w3.org/2000/svg"
   xmlns="http://www.w3.org/2000/svg"
   xmlns:sodipodi="http://sodipodi.sourceforge.net/DTD/sodipodi-0.dtd"
   xmlns:inkscape="http://www.inkscape.org/namespaces/inkscape"
   viewBox="0 0 64 64"
   enable-background="new 0 0 64 64"
   version="1.1"
   id="svg1041"
   sodipodi:docname="Savannah.svg"
   inkscape:version="0.92.4 5da689c313, 2019-01-14"
   inkscape:export-filename="/home/mhall/projects/savannah/frontendv2/static/savannah/Savannah.png"
   inkscape:export-xdpi="768"
   inkscape:export-ydpi="768">
  <metadata
     id="metadata1047">
    <rdf:RDF>
      <cc:Work
         rdf:about="">
        <dc:format>image/svg+xml</dc:format>
        <dc:type
           rdf:resource="http://purl.org/dc/dcmitype/StillImage" />
        <dc:title></dc:title>
      </cc:Work>
    </rdf:RDF>
  </metadata>
  <defs
     id="defs1045" />
  <sodipodi:namedview
     pagecolor="#ffffff"
     bordercolor="#666666"
     borderopacity="1"
     objecttolerance="10"
     gridtolerance="10"
     guidetolerance="10"
     inkscape:pageopacity="0"
     inkscape:pageshadow="2"
     inkscape:window-width="1841"
     inkscape:window-height="1053"
     id="namedview1043"
     showgrid="false"
     inkscape:zoom="13.828125"
     inkscape:cx="32"
     inkscape:cy="32"
     inkscape:window-x="79"
     inkscape:window-y="27"
     inkscape:window-maximized="1"
     inkscape:current-layer="svg1041" />
  <path
     d="m58 21.2c3.9-2.6 4-6.4 4-6.4-3.9-.2-3.8-4.2-7.4-7.8-4.8-4.8-10.9-1.8-10.9-1.8.3-1.5-.5-2.4.1-3.2-8.2 0-11.8 3.5-11.8 3.5 0 0-3.6-3.5-11.8-3.5.5.8-.2 1.7.1 3.2 0 0-6.2-3.1-10.9 1.8-3.6 3.7-3.5 7.7-7.4 7.8 0 0 .1 3.8 4 6.4 0 0-4.1 3.9-3.4 12.1 0 0 1.6-2 5.5-2.7-4.5 3.8-1.9 9.4-5.2 13.2 0 0 4.6 1 6.5-.3-.7 5.9 2.9 8.2 2.9 11.1 4.1-1.3 4.7-5.4 4.7-5.4 0 7.5 2.6 7.2 2.6 11.2 0 0 4.5-.7 6.4-4.5.7 3.5 4.3 3.9 6.2 6.1 1.9-2.2 5.4-2.6 6.2-6.1 1.9 3.7 6.4 4.5 6.4 4.5 0-4 2.6-3.7 2.6-11.2 0 0 .6 4 4.7 5.4 0-2.9 3.6-5.2 2.9-11.1 1.9 1.3 6.5.3 6.5.3-3.3-3.9-.7-9.5-5.2-13.2 3.8.8 5.5 2.7 5.5 2.7.3-8.3-3.8-12.1-3.8-12.1"
     fill="#8f6b51"
     id="path1005"
     style="fill:#e47107;fill-opacity:1" />
  <path
     d="m55.7 7.1c-2.6-2.1-10.1.2-13 3.8 3.5 1.2 7.6 4.2 10.7 11.4 6.5-3.2 5-13 2.3-15.2"
     fill="#e5bc5e"
     id="path1007"
     style="fill:#eecc70;fill-opacity:1" />
  <path
     d="m52 19.5c3.8-1.6 3-7 1.5-8.2-1.3-1.1-5.1 0-6.7 1.8 1.8 1.4 3.6 3.5 5.2 6.4"
     fill="#3e4347"
     id="path1009" />
  <path
     d="m21.3 10.9c-2.9-3.6-10.4-5.9-13-3.8-2.7 2.2-4.3 12 2.3 15.2 3.2-7.1 7.2-10.2 10.7-11.4"
     fill="#e5bc5e"
     id="path1011"
     style="fill:#eecc70;fill-opacity:1" />
  <path
     d="m12 19.5c1.6-2.9 3.4-5 5.2-6.4-1.7-1.8-5.4-2.9-6.7-1.8-1.5 1.2-2.3 6.6 1.5 8.2"
     fill="#3e4347"
     id="path1013" />
  <path
     d="m48.9 28.7c.5-2.2-1.6-7.3-3.5-8.3-.3-.2-1.5 0-1.5 0-.4-.5-2.3-6-7.3-7-3-.5-4.6 2-4.6 2s-1.6-2.6-4.6-2c-5 .9-7 6.5-7.3 7 0 0-1.2-.2-1.5 0-1.9 1.1-3.9 6.1-3.5 8.3.6 2.7 5.3 5.4 5.3 10h23.4c-.1-4.6 4.6-7.3 5.1-10"
     fill="#e5bc5e"
     id="path1015"
     style="fill:#eecc70;fill-opacity:1" />
  <path
     fill="#fff"
     d="M32 16.4 30.7 19 32 27.1 33.3 19z"
     id="path1017" />
  <g
     fill="#3e4347"
     id="g1023">
    <path
       d="m42.9 26c0 1.7-1.1 3-2.4 3-1.3 0-2.4-1.3-2.4-3 0-1.7 1.1-3 2.4-3 1.3 0 2.4 1.4 2.4 3"
       id="path1019" />
    <path
       d="m21.1 26c0 1.7 1.1 3 2.4 3 1.3 0 2.4-1.3 2.4-3 0-1.7-1.1-3-2.4-3-1.3 0-2.4 1.4-2.4 3"
       id="path1021" />
  </g>
  <path
     d="m20.5 41.8c0 6.4 7.7 11.3 7.7 11.3-.1-1.3.3-2.3.3-2.3.3 1.9 1.2 3.3 1.2 3.3 0-1.6.8-2.3.8-2.3.8 2.2 1.6 3.1 1.6 3.1s.8-.9 1.6-3.1c0 0 .8.7.8 2.3 0 0 .9-1.4 1.2-3.3 0 0 .4 1.1.3 2.3 0 0 7.7-4.9 7.7-11.3h-23.2"
     fill="#fff"
     id="path1025" />
  <path
     d="m43.3 36.5c-.3-.6-5.4-4.7-5.4-4.7h-11.8c0 0-5 4-5.4 4.7-.5 1-.6 4.2-.2 5.2 0 0 4.9 7.4 11.5 1 6.6 6.4 11.5-1 11.5-1 .4-1 .3-4.2-.2-5.2"
     fill="#ffda87"
     id="path1027" />
  <g
     fill="#3e4347"
     id="g1035">
    <path
       d="m20.5 41.8c0 0 0 0 0 0"
       id="path1029" />
    <path
       d="m43.5 41.8c0 0 0 0 0 0"
       id="path1031" />
    <path
       d="m33 42.7v-5.9l3.8-1.6c.6-.3 1.1-1 1.1-1.6v-1.7h-11.8v1.7c0 .6.5 1.3 1.1 1.6l3.8 1.6v5.9c-5 4.6-9.9-.4-10.4-.9.6.9 5.4 8.9 11.5 2.6 6 6.3 10.9-1.8 11.5-2.6-.6.6-5.6 5.6-10.6.9"
       id="path1033" />
  </g>
  <path
     d="m37.9 31.9c-1.6-2.9-1.8-3.1-3.2-3.8-1.2-.5-4.1-.5-5.3 0-1.4.6-1.6.9-3.2 3.8h11.7"
     fill="#ffda87"
     id="path1037" />
  <path
     d="m32 30.3c-3.8 0-5.9 1.6-5.9 1.6s.2-.1 2.3 1.4c1.3 1 2.4 3.6 3.6 3.6 1.2 0 2.3-2.6 3.6-3.6 2.1-1.6 2.3-1.4 2.3-1.4s-2.1-1.6-5.9-1.6"
     fill="#af7751"
     id="path1039" />
</svg>
